PathFileType	4	(X/Y/Z)	C:\Users\°ÂÌØÂü\Desktop\20210112\bx_y_0_1801-Unnamed.trc
DataRate	CameraRate	NumFrames	NumMarkers	Units	OrigDataRate	OrigDataStartFrame	OrigNumFrames
50.00	50.00	       5	0	mm	50.00	266	       708
Frame#	Time	
		

266	5.300	-586.76520	-90.00702	1487.36438	-686.57013	-60.14817	704.21686	-615.55481	-20.94184	818.36572	-688.26245	275.91406	886.56293	-611.00079	213.69810	835.82410	-615.18829	64.81296	572.38062	-682.56708	275.59958	739.31036	-602.92615	150.97060	571.50482	-648.37830	249.67041	566.20825	-605.81506	0.96184	503.01462	-699.36072	255.77234	497.81021	-597.25110	211.07861	515.82404	-661.02216	252.35458	625.89484	-666.86432	-69.57085	160.90045	-703.84442	150.01411	210.82684	-882.44482	295.90137	144.46693	-673.35974	53.66820	157.57062	-602.44391	16.42358	167.62762	-594.32941	223.42972	172.83339	-667.75195	299.05356	160.28404	-630.74878	307.40665	162.42468	-561.13019	262.69229	165.77325	-528.16150	304.17200	146.42805	-565.26971	96.08170	1795.82788	-584.74780	274.89899	1488.45581	-625.98999	-81.74731	158.03688	-517.82477	-72.51702	142.96156	-792.64502	169.13402	186.64461	-766.09399	220.83867	206.01938	-868.86499	90.95041	1045.07983	-763.14972	-3.16446	209.73642	-790.45001	60.17568	177.67851	-712.47510	-40.99820	484.17435	-561.94159	-43.02509	164.59349	-875.93359	-78.96604	141.13327	-554.84650	84.33002	1362.85083	-649.24426	-41.74862	605.77454	-651.72131	-38.75764	556.04541	-674.20972	173.54973	155.00583	-673.63873	-14.78299	1023.95691	-661.57465	203.34161	1040.14575	-697.51160	-82.87245	852.59259	-707.60059	77.07250	212.37671	
267	5.320	-590.38715	-90.57022	1492.43359	-686.02399	-59.18116	705.32159	-614.02875	-20.67387	818.33643	-685.55536	276.10895	888.77649	-609.39124	212.92581	836.05280	-617.37683	65.39895	572.70428	-682.20380	274.42261	740.45782	-605.77167	150.29869	571.66809	-650.03583	248.41815	567.43829	-607.80688	1.53859	503.41876	-701.29681	255.05849	498.31433	-599.47058	210.18965	516.70880	-662.44202	251.49565	626.59259	-666.85022	-69.51517	160.50432	-703.92255	150.10321	211.01610	-882.59625	296.22037	144.63243	-673.49908	53.60024	157.62074	-602.46143	16.39520	167.50386	-594.16907	223.40979	172.89212	-667.67303	299.05185	160.24657	-630.80975	307.40344	162.21478	-561.13019	262.69229	165.77325	-528.11450	304.37653	146.40186	-572.41229	95.33901	1800.98621	-588.81213	274.53787	1493.51428	-625.84717	-81.87534	157.90195	-517.81641	-72.37314	142.76299	-792.69763	169.12260	186.64680	-766.23914	220.89520	206.35370	-865.79620	90.85255	1046.46765	-763.26776	-3.08021	209.53902	-790.59064	59.90996	177.61984	-713.74896	-40.81269	484.36057	-561.94159	-43.02509	164.59349	-875.97748	-78.88188	141.21204	-556.39459	84.13243	1368.38989	-650.16058	-41.59643	606.74017	-653.35327	-38.05862	556.61273	-674.44159	173.63493	154.94760	-670.22693	-15.86065	1027.31580	-658.18311	203.39713	1043.12085	-695.19330	-83.49852	854.24036	-707.14972	77.33578	212.50206	
268	5.340	-593.68042	-90.74839	1497.42932	-685.56757	-57.90548	705.53973	-612.25116	-20.66816	818.43207	-683.53918	275.68008	889.83643	-607.58234	212.33380	836.90869	-619.53821	65.80569	572.66718	-681.38763	273.43948	741.87939	-607.88269	149.80885	571.94440	-652.46753	247.88760	568.22968	-609.46063	1.73708	504.22617	-703.06512	254.81317	498.79160	-601.35956	209.68195	517.35956	-663.96997	250.65990	627.73480	-666.56598	-69.73096	160.70744	-704.14484	150.20503	211.16507	-882.50470	296.02646	144.50813	-673.34814	53.58650	157.62985	-602.43439	16.16962	167.53450	-594.14191	223.54587	172.90971	-667.62823	299.10272	160.16177	-630.68243	307.38052	162.49776	-561.13019	262.69229	165.77325	-527.99017	304.09348	146.41525	-579.35870	94.78991	1806.10803	-592.84576	274.69058	1498.26965	-625.79645	-81.96735	158.10783	-517.79559	-72.17948	142.44081	-792.86987	169.33090	186.50632	-766.46960	220.91858	206.18230	-862.52698	90.36232	1047.58118	-763.39093	-3.38498	209.39456	-790.47925	59.80456	177.51727	-715.29901	-40.13191	484.64395	-561.65851	-42.69798	164.79095	-875.97748	-78.88188	141.21204	-558.07343	84.28673	1373.43640	-652.64636	-40.00087	606.33630	-655.25415	-37.48509	557.26001	-674.19287	173.86372	155.10135	-666.68817	-16.09479	1029.69299	-654.72620	203.49364	1046.97876	-692.89600	-83.34877	855.12903	-707.14545	77.26760	212.76820	
269	5.360	-597.43640	-90.76592	1501.79370	-686.00482	-57.83960	707.33447	-610.34827	-20.50082	819.10950	-681.60498	275.20752	891.34961	-605.68890	212.11679	837.13153	-621.45050	66.34875	573.56482	-681.23956	272.66245	742.68512	-610.12463	148.66087	572.41974	-654.29108	247.22838	569.01532	-611.40894	2.51646	504.59671	-704.92609	254.13687	499.37140	-603.53473	209.05157	518.77710	-665.56488	250.13036	628.66772	-666.64966	-69.64081	160.68919	-704.22461	150.26112	211.15898	-882.50830	296.11615	144.58771	-673.47589	53.43686	157.73920	-602.82788	15.95034	167.02089	-594.15204	223.55733	172.98579	-667.62823	299.10272	160.16177	-630.68243	307.38052	162.49776	-561.06091	262.63028	165.79044	-527.99017	304.09348	146.41525	-586.02307	94.31418	1810.83582	-596.42322	274.88226	1502.77283	-625.57977	-81.94666	157.79651	-517.67926	-72.57872	143.09436	-792.89893	169.36958	186.57240	-766.61749	220.69272	206.08017	-859.37115	90.20579	1048.44580	-763.50818	-3.40369	209.24348	-790.64160	59.72507	177.37152	-717.22803	-39.81745	484.94427	-561.90936	-42.53427	164.65051	-875.97748	-78.88188	141.21204	-559.82935	84.12315	1378.29968	-653.83881	-40.09680	607.10052	-657.05511	-37.52172	558.29193	-674.27728	173.70792	155.00131	-663.39655	-16.76704	1032.27356	-651.54584	202.72304	1048.88538	-690.39526	-83.36602	856.71057	-708.35077	76.64510	212.81125	
270	5.380	-600.56940	-90.96098	1505.96912	-686.06427	-58.13789	708.93042	-609.08710	-20.53101	819.32849	-678.85754	275.80490	893.32037	-603.84619	211.66968	837.19574	-623.13287	66.83688	574.31061	-680.97247	271.38089	744.00500	-612.63483	147.45552	573.10266	-656.64679	246.79109	569.46521	-613.30774	2.91849	505.52689	-706.89233	253.61314	499.71234	-605.86237	208.16144	519.18982	-667.23059	249.33435	629.49280	-666.65259	-69.76857	160.55220	-704.50482	150.42433	211.14705	-882.52686	295.95218	144.47594	-673.49908	53.60024	157.62074	-602.78326	16.05463	167.19795	-594.27362	223.32721	172.86267	-667.62115	298.98816	160.34659	-630.68243	307.38052	162.49776	-561.17200	262.51868	165.91316	-528.16150	304.17200	146.42805	-592.50269	93.87990	1815.40674	-600.78058	274.72052	1506.91040	-625.38092	-81.49051	157.66840	-517.75543	-72.47263	142.82541	-793.02393	169.47433	186.54819	-766.71814	220.81442	206.05318	-856.17188	89.73594	1049.66760	-763.66351	-3.47094	209.37715	-790.72174	59.35930	177.37601	-718.82849	-40.01870	485.18607	-561.65851	-42.69798	164.79095	-875.99457	-78.94872	141.12155	-561.63074	84.29657	1383.06909	-655.31500	-39.82858	608.47266	-659.68695	-35.75116	557.87842	-674.49335	173.58621	154.84995	-660.66577	-16.23187	1034.17041	-648.17230	203.18863	1052.28186	-688.53387	-83.83855	857.84625	-708.96259	76.49559	212.52275	
